<?xml version="1.0" encoding="utf-8"?>
<!-- Generator: Adobe Illustrator 20.1.0, SVG Export Plug-In . SVG Version: 6.00 Build 0)  -->
<svg version="1.1" id="Layer_1" xmlns="http://www.w3.org/2000/svg" xmlns:xlink="http://www.w3.org/1999/xlink" x="0px" y="0px"
	 viewBox="0 0 131 44.5" style="enable-background:new 0 0 131 44.5;" xml:space="preserve">
<style type="text/css">
	.st0{fill:#FFFFFF;stroke:#FCFCFC;stroke-width:0.5;stroke-miterlimit:10;}
</style>
<path class="st0" d="M2.5,27.8c0.7-1.3,1.8-2.4,3.4-3.4c1.5-1,3.9-2,6.9-3.1c2.9-1,5-1.9,6.2-2.7s2.1-1.6,2.6-2.5s0.8-2.1,0.8-3.6
	c0-2.3-0.9-4.2-2.6-5.5c-1.7-1.3-4-2-7-2s-6.1,0.7-9.4,2l-1-2.4c3.3-1.4,6.7-2.1,10.4-2.1c3.6,0,6.6,0.9,8.9,2.8
	c2.3,1.9,3.5,4.3,3.5,7.2c0,2.7-0.8,4.8-2.3,6.4s-4.3,3.1-8.3,4.5c-2.8,0.9-4.8,1.8-6.3,2.6C7,26.9,6,27.8,5.3,28.8
	c-0.6,1-0.9,2.2-0.9,3.7c0,2.4,0.9,4.4,2.8,5.8c1.9,1.5,4.5,2.2,7.7,2.2c4.4,0,8-0.6,10.9-1.8v2.8c-2.6,1.1-6.3,1.6-11.1,1.6
	c-4,0-7.2-1-9.6-2.9c-2.4-1.9-3.6-4.5-3.6-7.8C1.5,30.7,1.8,29.2,2.5,27.8z"/>
<path class="st0" d="M48.2,3.2L33.5,42.6h-2.8L45.3,3.2H48.2z"/>
<path class="st0" d="M57.2,40.2c0-1.3,0.5-2,1.6-2s1.7,0.7,1.7,2s-0.6,2-1.7,2S57.2,41.6,57.2,40.2z"/>
<path class="st0" d="M79.3,24.8L90.8,3.2h3L80.8,27.3v15.2h-2.8v-15L64.8,3.2h3.2L79.3,24.8z"/>
<path class="st0" d="M129.4,42.7h-2.8V23.2h-23v19.4h-2.8V3.2h2.8v17.5h23V3.2h2.8V42.7z"/>
</svg>
