<?xml version="1.0" encoding="utf-8"?>
<!-- Generator: Adobe Illustrator 20.1.0, SVG Export Plug-In . SVG Version: 6.00 Build 0)  -->
<svg version="1.1" id="Layer_1" xmlns="http://www.w3.org/2000/svg" xmlns:xlink="http://www.w3.org/1999/xlink" x="0px" y="0px"
	 viewBox="0 0 56.7 56.7" style="enable-background:new 0 0 56.7 56.7;" xml:space="preserve">
<path d="M54.7,26.6H7.3C24.5,8.5,24.7,8,24.8,7.6c0.4-1,0-2.2-1-2.6C23,4.6,22,4.9,21.5,5.7C20.4,7,8.7,19.4,1.4,27l-1.3,1.4
	l21.6,23.3c0.4,0.4,0.9,0.6,1.4,0.6c0.5,0,1-0.2,1.3-0.6c0.8-0.8,0.8-2,0.1-2.8l-17-18.3h47.2c1.1,0,1.9-0.9,1.9-2
	S55.7,26.6,54.7,26.6z"/>
</svg>
