<?xml version="1.0" encoding="utf-8"?>
<!-- Generator: Adobe Illustrator 20.1.0, SVG Export Plug-In . SVG Version: 6.00 Build 0)  -->
<svg version="1.1" id="Layer_1" xmlns="http://www.w3.org/2000/svg" xmlns:xlink="http://www.w3.org/1999/xlink" x="0px" y="0px"
	 viewBox="0 0 54.2 56.7" style="enable-background:new 0 0 54.2 56.7;" xml:space="preserve">
<style type="text/css">
	.st0{fill:#333333;}
</style>
<g>
	<path class="st0" d="M6.6,19.2h4.8v1.2H9.8v4.4H8.3v-4.4H6.6V19.2z"/>
	<path class="st0" d="M15.5,24.8l-0.8-1.6h0h-1.1v1.6h-1.5v-5.6h2.5c0.7,0,1.3,0.2,1.7,0.5c0.4,0.3,0.6,0.8,0.6,1.5
		c0,0.4-0.1,0.8-0.3,1.1c-0.2,0.3-0.4,0.5-0.7,0.7l1.2,1.8H15.5z M13.6,22.1h1.1c0.3,0,0.5-0.1,0.7-0.2c0.2-0.2,0.2-0.4,0.2-0.7
		c0-0.3-0.1-0.5-0.2-0.6c-0.2-0.1-0.4-0.2-0.7-0.2h-1.1V22.1z"/>
	<path class="st0" d="M17.9,19.2h1.5v5.6h-1.5V19.2z"/>
	<path class="st0" d="M24.6,19.7c0.4,0.3,0.6,0.8,0.6,1.5c0,0.7-0.2,1.2-0.6,1.6c-0.4,0.4-1,0.6-1.7,0.6h-1v1.6h-1.5v-5.6H23
		C23.7,19.2,24.2,19.4,24.6,19.7z M23.6,21.9c0.2-0.2,0.2-0.4,0.2-0.7c0-0.3-0.1-0.5-0.2-0.6c-0.2-0.1-0.4-0.2-0.7-0.2H22v1.7h0.9
		C23.2,22.1,23.4,22,23.6,21.9z"/>
	<path class="st0" d="M26,19.2h1.5v4.4h2.4v1.3H26V19.2z"/>
	<path class="st0" d="M30.5,19.2h4.5v1.2h-3v1.1h2.7v1.2l-2.7,0v1.1H35v1.2h-4.5V19.2z"/>
	<path class="st0" d="M7.1,28.5h1.5v4.4H11v1.3H7.1V28.5z"/>
	<path class="st0" d="M15.8,34.2l-0.4-1H13l-0.4,1h-1.5l2.4-5.6H15l2.4,5.6H15.8z M13.5,32H15l-0.8-2L13.5,32z"/>
	<path class="st0" d="M21.7,28.7c0.3,0.1,0.6,0.3,0.7,0.5c0.2,0.2,0.3,0.5,0.3,0.8c0,0.3-0.1,0.6-0.3,0.8c-0.2,0.2-0.4,0.4-0.7,0.5
		c0.4,0.1,0.6,0.2,0.8,0.5c0.2,0.3,0.3,0.6,0.3,0.9c0,0.3-0.1,0.6-0.3,0.8c-0.2,0.2-0.4,0.4-0.8,0.5c-0.3,0.1-0.7,0.2-1.2,0.2h-2.8
		v-5.6h2.7C21,28.5,21.4,28.6,21.7,28.7z M21,30.6c0.1-0.1,0.2-0.2,0.2-0.4c0-0.2-0.1-0.3-0.2-0.4c-0.1-0.1-0.3-0.1-0.5-0.1h-1.1
		v1.1h1.1C20.7,30.8,20.9,30.7,21,30.6z M21.1,32.9c0.2-0.1,0.2-0.3,0.2-0.5c0-0.2-0.1-0.3-0.2-0.4c-0.2-0.1-0.4-0.2-0.6-0.1h-1.1
		V33h1.1C20.8,33,21,33,21.1,32.9z"/>
	<rect x="6.6" y="14.3" class="st0" width="2.2" height="0.6"/>
	<rect x="6.6" y="38.5" class="st0" width="2.2" height="0.6"/>
	<g>
		<polygon class="st0" points="50.4,5.8 50.4,54.2 2.1,54.2 0.5,55.8 52,55.8 52,4.3 52,4.3 		"/>
	</g>
	<g>
		<polygon class="st0" points="2.2,0.6 2.2,52.1 2.2,52.1 3.8,50.6 3.8,2.2 52.2,2.2 53.7,0.6 		"/>
		<polyline class="st0" points="53.7,0.6 53.7,0.6 52.2,2.2 		"/>
	</g>
</g>
</svg>
