<?xml version="1.0" encoding="utf-8"?>
<!-- Generator: Adobe Illustrator 20.1.0, SVG Export Plug-In . SVG Version: 6.00 Build 0)  -->
<svg version="1.1" id="Layer_1" xmlns="http://www.w3.org/2000/svg" xmlns:xlink="http://www.w3.org/1999/xlink" x="0px" y="0px"
	 viewBox="0 0 189.3 189.3" style="enable-background:new 0 0 189.3 189.3;" xml:space="preserve">
<path d="M32.8,103.1c0.7-1.3,1.8-2.4,3.4-3.4c1.5-1,3.9-2,6.9-3.1c2.9-1,5-1.9,6.2-2.7c1.2-0.7,2.1-1.6,2.6-2.5
	c0.5-0.9,0.8-2.1,0.8-3.6c0-2.3-0.9-4.2-2.6-5.5c-1.7-1.3-4-2-7-2c-3,0-6.1,0.7-9.4,2l-1-2.4c3.3-1.4,6.7-2.1,10.4-2.1
	c3.6,0,6.6,0.9,8.9,2.8c2.3,1.9,3.5,4.3,3.5,7.2c0,2.7-0.8,4.8-2.3,6.4c-1.5,1.6-4.3,3.1-8.3,4.5c-2.8,0.9-4.8,1.8-6.3,2.6
	c-1.4,0.8-2.4,1.7-3.1,2.7c-0.6,1-0.9,2.2-0.9,3.7c0,2.4,0.9,4.4,2.8,5.8c1.9,1.5,4.5,2.2,7.7,2.2c4.4,0,8-0.6,10.9-1.8v2.8
	c-2.6,1.1-6.3,1.6-11.1,1.6c-4,0-7.2-1-9.6-2.9c-2.4-1.9-3.6-4.5-3.6-7.8C31.8,105.9,32.1,104.4,32.8,103.1z"/>
<path d="M78.4,78.4l-14.7,39.4h-2.8l14.7-39.4H78.4z"/>
<path d="M87.5,111.4c0-1.3,0.5-2,1.6-2c1.1,0,1.7,0.7,1.7,2c0,1.3-0.6,2-1.7,2C88,113.4,87.5,112.8,87.5,111.4z"/>
<path d="M109.6,100l11.5-21.6h3L111,102.6v15.2h-2.8v-15L95,78.4h3.2L109.6,100z"/>
<path d="M159.6,117.9h-2.8V98.5h-23v19.4h-2.8V78.4h2.8v17.5h23V78.4h2.8V117.9z"/>
</svg>
