<?xml version="1.0" encoding="utf-8"?>
<!-- Generator: Adobe Illustrator 22.0.1, SVG Export Plug-In . SVG Version: 6.00 Build 0)  -->
<svg version="1.1" id="레이어_1" xmlns="http://www.w3.org/2000/svg" xmlns:xlink="http://www.w3.org/1999/xlink" x="0px"
	 y="0px" viewBox="0 0 229 229" style="enable-background:new 0 0 229 229;" xml:space="preserve">
<style type="text/css">
	.st0{fill:#211D1E;}
</style>
<g>
	<g>
		<path class="st0" d="M203.4,124.5c0-0.1-0.1-0.1-0.1-0.2c-0.1-0.1-0.2-0.2-0.3-0.3c0,0,0,0-0.1-0.1c-0.1-0.1-0.2-0.2-0.2-0.2
			c-0.1-0.1-0.1-0.1-0.2-0.1c0,0,0,0,0,0c0,0,0,0-0.1,0c-0.5-0.4-1.1-0.7-1.7-0.9c-0.1,0-0.2-0.1-0.3-0.1c0,0,0,0,0,0c0,0,0,0-0.1,0
			c-0.1,0-0.1,0-0.2,0c0,0,0,0,0,0c0,0-0.1,0-0.1,0c0,0,0,0,0,0c-0.1,0-0.2,0-0.3,0c0,0-0.1,0-0.1,0c-0.1,0-0.3,0-0.4,0
			c-0.1,0-0.3,0-0.4,0c0,0-0.1,0-0.1,0c-0.1,0-0.2,0-0.3,0c0,0,0,0-0.1,0c0,0-0.1,0-0.1,0c0,0-0.1,0-0.1,0c0,0,0,0-0.1,0
			c0,0-0.1,0-0.1,0c0,0,0,0,0,0c-0.1,0-0.2,0.1-0.3,0.1c-0.7,0.2-1.3,0.5-1.8,1c-0.1,0.1-0.1,0.1-0.2,0.1c-0.1,0.1-0.2,0.2-0.3,0.3
			c-0.1,0.1-0.2,0.2-0.3,0.4c0,0.1-0.1,0.1-0.1,0.2c-0.7,1-1.1,2.1-1.1,3.3c0,1.2,0.4,2.4,1.1,3.3c0,0.1,0.1,0.1,0.1,0.2
			c0.1,0.1,0.2,0.3,0.3,0.4c0.1,0.1,0.2,0.1,0.2,0.2c0,0,0,0,0,0c0.1,0,0.1,0.1,0.2,0.1c0.5,0.4,1.2,0.8,1.8,1c0,0,0,0,0.1,0
			c0.3,0.1,0.6,0.2,1,0.2c0,0,0,0,0,0c0,0,0,0,0,0c0.2,0,0.3,0,0.5,0c0.2,0,0.3,0,0.5,0c0,0,0,0,0,0c0,0,0,0,0,0
			c0.3,0,0.7-0.1,1-0.2c0,0,0,0,0,0c0,0,0,0,0,0c0,0,0.1,0,0.1,0c0,0,0,0,0,0c0,0,0.1,0,0.1,0c0,0,0,0,0,0c0,0,0.1,0,0.1,0
			c0,0,0,0,0,0c0,0,0.1,0,0.1,0c0,0,0,0,0,0c0,0,0.1,0,0.1,0c0,0,0,0,0,0c0,0,0.1,0,0.1,0c0,0,0,0,0,0c0,0,0,0,0.1,0c0,0,0,0,0,0
			c0,0,0,0,0.1,0c0,0,0,0,0.1,0c0,0,0,0,0.1,0c0,0,0,0,0.1,0c0,0,0,0,0.1,0c0,0,0,0,0.1,0c0,0,0,0,0.1,0c0,0,0,0,0,0
			c0,0,0.1,0,0.1,0c0,0,0,0,0,0c0.2-0.1,0.3-0.2,0.4-0.3c0,0,0.1,0,0.1-0.1c0,0,0.1-0.1,0.1-0.1c0.1-0.1,0.1-0.1,0.2-0.2
			c0.1-0.1,0.2-0.2,0.3-0.4l0,0c0.1-0.1,0.1-0.1,0.1-0.2c0.7-1,1.1-2.1,1.1-3.3C204.5,126.6,204.1,125.4,203.4,124.5z M202.9,131
			L202.9,131c-0.1,0.1-0.1,0.1-0.1,0.1l-0.1,0l-0.1,0c-0.2-0.1-0.6-0.3-0.8-0.4c-0.1,0.1-0.1,0.3-0.2,0.4c0.1,0.1,0.4,0.2,0.6,0.3
			l0.3,0.2c-0.4,0.4-0.9,0.7-1.4,0.9c0,0,0,0-0.1,0c0,0,0,0,0,0c-0.3,0.1-0.7,0.2-1.1,0.3l0.4-0.5c0.2-0.2,0.5-0.7,0.7-0.9
			c-0.2,0-0.3-0.1-0.5-0.1c-0.2,0.3-0.5,0.7-0.8,1l-0.4,0.4V131c-0.1,0-0.1,0-0.2,0c-0.1,0-0.2,0-0.2,0v1.5l-0.4-0.4
			c-0.2-0.2-0.6-0.7-0.8-0.9c-0.2,0-0.3,0.1-0.5,0.1c0.2,0.2,0.5,0.7,0.7,0.9l0.4,0.5c-1-0.1-1.9-0.6-2.6-1.2l0.3-0.1
			c0.1-0.1,0.4-0.2,0.6-0.3c-0.1-0.1-0.1-0.3-0.2-0.4c-0.2,0.1-0.6,0.3-0.8,0.4l-0.1,0.1c-0.8-0.8-1.3-1.9-1.3-3.2h1.7
			c0-0.1,0-0.1,0-0.2c0-0.1,0-0.2,0-0.2h-1.7c0.1-1.2,0.6-2.3,1.3-3.2l0.1,0l0.1,0c0.2,0.1,0.7,0.3,0.9,0.4c0.1-0.1,0.1-0.3,0.2-0.4
			c-0.1-0.1-0.5-0.2-0.6-0.3l-0.3-0.1c0.5-0.4,1-0.7,1.6-1c0.1,0,0.2-0.1,0.2-0.1c0.3-0.1,0.5-0.1,0.8-0.2l-0.4,0.5
			c-0.2,0.2-0.5,0.7-0.7,0.9c0.1,0,0.3,0.1,0.5,0.1c0.2-0.3,0.6-0.7,0.8-1l0.4-0.4v1.9l-0.1,0l-0.1,0c-0.2,0-0.6-0.1-0.7-0.1
			c-0.1,0.1-0.2,0.3-0.2,0.4c0.2,0,0.7,0.1,1,0.1l0.2,0v2.2h-1.7c0,0.1,0,0.2,0,0.2c0,0.1,0,0.1,0,0.2h1.7v1.7c0.1,0,0.4,0,0.4,0
			V128h2.2l0,0.1l0,0.1c0,0.5-0.2,1.2-0.4,1.7c0.1,0,0.3,0.1,0.4,0.1c0.2-0.5,0.4-1.3,0.4-1.9l0-0.2h2.1
			C204,129.1,203.6,130.2,202.9,131C202.9,131,202.9,131,202.9,131z M204.1,127.5h-2.1l0-0.1l0-0.1c0-0.7-0.2-1.3-0.4-1.9
			c0-0.1,0-0.1-0.1-0.2l-0.1-0.2l0.1,0l0.1,0v0c0.1,0,0.1-0.1,0.2-0.1c0.3-0.1,0.6-0.3,0.8-0.4l0.2-0.1
			C203.5,125.2,204,126.3,204.1,127.5z M199.4,125.4l0.1,0c0.3,0,0.7-0.1,1-0.1c0.1,0,0.1,0,0.2,0l0.2,0l0,0.1l0,0.1
			c0,0.1,0.1,0.1,0.1,0.2c0.2,0.6,0.3,1.2,0.4,1.8l0,0.2h-2.2v-2.1v-0.1H199.4z M199.3,124.9v-1.7V123l0.4,0.4
			c0.3,0.3,0.5,0.6,0.7,0.9c0.1,0.1,0.1,0.1,0.1,0.2l0.2,0.3l-0.1,0l-0.2,0c-0.1,0-0.2,0-0.2,0c-0.2,0-0.4,0.1-0.6,0.1L199.3,124.9z
			 M202.4,124.1l-0.3,0.1c-0.2,0.1-0.4,0.2-0.6,0.3c-0.1,0-0.1,0.1-0.2,0.1l-0.2,0.1l0-0.1l0-0.1c0-0.1-0.1-0.1-0.1-0.2
			c-0.2-0.3-0.4-0.6-0.7-0.9l-0.4-0.5C200.8,123,201.7,123.4,202.4,124.1z"/>
		<path class="st0" d="M200.5,130.3c-0.3-0.1-0.7-0.1-1-0.1c-0.1,0-0.3,0-0.4,0c-0.2,0-0.3,0-0.4,0c-0.3,0-0.7,0.1-1,0.1
			c-0.1,0-0.1,0-0.2,0l-0.2,0l0-0.1l0-0.1c0-0.1-0.1-0.2-0.1-0.2c-0.2-0.6-0.3-1.2-0.4-1.8c0-0.2,0-0.3,0-0.5c0-0.1,0-0.3,0-0.4
			c0-0.6,0.2-1.2,0.4-1.8c0-0.1,0.1-0.1,0.1-0.2c0.1-0.2,0.2-0.4,0.3-0.6c-0.1,0-0.3-0.1-0.4-0.1c-0.1,0.2-0.2,0.4-0.3,0.6
			c0,0.1-0.1,0.1-0.1,0.2c-0.2,0.6-0.4,1.2-0.4,1.9c0,0.1,0,0.3,0,0.4c0,0.1,0,0.3,0,0.4c0,0.7,0.2,1.3,0.4,1.9
			c0,0.1,0.1,0.1,0.1,0.2c0.1,0.2,0.2,0.4,0.3,0.6c0.2-0.1,0.5-0.1,0.7-0.2c0.1,0,0.2,0,0.2,0c0.2,0,0.4-0.1,0.6-0.1
			c0.2,0,0.3,0,0.5,0c0.2,0,0.3,0,0.4,0c0.2,0,0.4,0,0.6,0.1c0.1,0,0.2,0,0.2,0c0.2,0,0.5,0.1,0.7,0.2c0.1-0.1,0.1-0.3,0.2-0.4
			c-0.2-0.1-0.4-0.1-0.6-0.2C200.7,130.3,200.6,130.3,200.5,130.3z"/>
	</g>
	<path class="st0" d="M30.4,77h14.3v43.6h24.6v12.6H30.4V77z"/>
	<path class="st0" d="M74.2,133.2V77h19.2l10.5,36.2L114.2,77h19.3v56.1h-13.2v-42l-11.7,42h-9.5l-11.7-42v42H74.2z"/>
	<path class="st0" d="M168,122.2c-9.3,0-16.8-7.5-16.8-16.8c0-9.3,7.5-16.8,16.8-16.8c6.8,0,12.6,4,15.3,9.8h13.5
		c-3.2-13-14.8-22.6-28.7-22.6c-16.4,0-29.6,13.3-29.6,29.6c0,16.4,13.3,29.6,29.6,29.6c14,0,25.8-9.8,28.8-22.9h-13.4
		C180.8,118.1,174.9,122.2,168,122.2z"/>
</g>
</svg>
