<?xml version="1.0" encoding="utf-8"?>
<!-- Generator: Adobe Illustrator 22.0.1, SVG Export Plug-In . SVG Version: 6.00 Build 0)  -->
<svg version="1.1" id="Layer_1" xmlns="http://www.w3.org/2000/svg" xmlns:xlink="http://www.w3.org/1999/xlink" x="0px" y="0px"
	 viewBox="0 0 54.2 56.7" style="enable-background:new 0 0 54.2 56.7;" xml:space="preserve">
<style type="text/css">
	.st0{fill:#FFFFFF;}
</style>
<g>
	<path class="st0" d="M6.5,21.5h4.8v1.2H9.6v4.4H8.2v-4.4H6.5V21.5z"/>
	<path class="st0" d="M15.3,27.1l-0.8-1.6l0,0h-1.1v1.6h-1.5v-5.6h2.5c0.7,0,1.3,0.2,1.7,0.5c0.4,0.3,0.6,0.8,0.6,1.5
		c0,0.4-0.1,0.8-0.3,1.1c-0.2,0.3-0.4,0.5-0.7,0.7l1.2,1.8H15.3z M13.4,24.4h1.1c0.3,0,0.5-0.1,0.7-0.2s0.2-0.4,0.2-0.6
		c0-0.3-0.1-0.5-0.2-0.6c-0.2-0.1-0.4-0.2-0.7-0.2h-1.1V24.4z"/>
	<path class="st0" d="M17.7,21.5h1.5v5.6h-1.5V21.5z"/>
	<path class="st0" d="M24.4,22c0.4,0.3,0.6,0.8,0.6,1.5s-0.2,1.2-0.6,1.5c-0.4,0.4-1,0.5-1.7,0.5h-1v1.6h-1.5v-5.6h2.5
		C23.5,21.5,24,21.7,24.4,22z M23.4,24.2c0.2-0.1,0.2-0.4,0.2-0.6c0-0.3-0.1-0.5-0.2-0.6c-0.2-0.1-0.4-0.2-0.7-0.2h-0.9v1.7h0.9
		C23,24.4,23.2,24.3,23.4,24.2z"/>
	<path class="st0" d="M25.7,21.5h1.5v4.4h2.4v1.2h-3.8v-5.6H25.7z"/>
	<path class="st0" d="M30.2,21.5h4.4v1.2h-3v1h2.7v1.2h-2.7V26h3v1.2h-4.5L30.2,21.5L30.2,21.5z"/>
	<path class="st0" d="M7,30.8h1.5v4.4h2.4v1.2H7V30.8z"/>
	<path class="st0" d="M15.7,36.4l-0.4-1h-2.4l-0.4,1H11l2.4-5.6h1.5l2.4,5.6H15.7z M13.3,34.3h1.6l-0.8-2L13.3,34.3z"/>
	<path class="st0" d="M21.5,31c0.3,0.1,0.6,0.3,0.7,0.5c0.2,0.2,0.3,0.5,0.3,0.8s-0.1,0.6-0.3,0.8c-0.2,0.2-0.4,0.4-0.7,0.4
		c0.4,0.1,0.6,0.2,0.8,0.5c0.2,0.3,0.3,0.6,0.3,0.9c0,0.3-0.1,0.6-0.3,0.8c-0.2,0.2-0.4,0.4-0.8,0.5c-0.3,0.1-0.7,0.2-1.1,0.2h-2.8
		v-5.6h2.7C20.8,30.8,21.2,30.8,21.5,31z M20.8,32.9c0.1-0.1,0.2-0.2,0.2-0.4s-0.1-0.3-0.2-0.4C20.7,32,20.5,32,20.3,32h-1.1v1h1.1
		C20.5,33,20.7,33,20.8,32.9z M20.9,35.1c0.1-0.1,0.2-0.3,0.2-0.4c0-0.2-0.1-0.3-0.2-0.4c-0.1-0.1-0.4-0.2-0.6-0.1h-1.1v1.2h1.1
		C20.6,35.3,20.8,35.2,20.9,35.1z"/>
	<rect x="6.4" y="16.7" class="st0" width="2.2" height="0.6"/>
	<rect x="6.4" y="40.7" class="st0" width="2.2" height="0.6"/>
	<g>
		<polygon class="st0" points="50.1,6.2 50.1,54.4 2,54.4 0.4,55.9 51.6,55.9 51.6,4.7 51.6,4.7 		"/>
	</g>
	<g>
		<polygon class="st0" points="2.1,1 2.1,52.3 2.1,52.3 3.7,50.7 3.7,2.6 51.8,2.6 53.3,1 		"/>
		<polyline class="st0" points="53.4,1 53.3,1 51.8,2.6 		"/>
	</g>
</g>
</svg>
